<?xml version="1.0" encoding="utf-8"?>
<!-- Generator: Adobe Illustrator 26.5.0, SVG Export Plug-In . SVG Version: 6.00 Build 0)  -->
<svg version="1.1" id="Layer_1" xmlns="http://www.w3.org/2000/svg" xmlns:xlink="http://www.w3.org/1999/xlink" x="0px" y="0px"
	 viewBox="0 0 32 32" style="enable-background:new 0 0 32 32;" xml:space="preserve">
<style type="text/css">
	.st0{fill:#20C063;}
	.st1{fill:#FFFFFF;}
</style>
<g id="Style_2_copy_3">
	<g>
		<path class="st0" d="M16,0C7.2,0,0,7.2,0,16c0,8.8,7.2,16,16,16s16-7.2,16-16C32,7.2,24.8,0,16,0z"/>
	</g>
	<g>
		<path class="st1" d="M16,5.6c-3.3,0-5.4,2.2-5.4,5.6c0,2.8,1.8,5.1,2.8,8.7c0.6,2.1,0.9,4.6,1.1,6.4h3c0.2-1.9,0.5-4.4,1.1-6.4
			c1-3.6,2.8-6,2.8-8.7C21.4,7.8,19.3,5.6,16,5.6z M16,14.1c-1.4,0-2.5-1.1-2.5-2.5s1.1-2.5,2.5-2.5s2.5,1.1,2.5,2.5
			S17.4,14.1,16,14.1z"/>
	</g>
</g>
</svg>
